<svg width="20" height="20" viewBox="0 0 20 20" fill="none" xmlns="http://www.w3.org/2000/svg">
<path d="M5.83333 17.5C5.37499 17.5 4.98277 17.3369 4.65666 17.0108C4.32999 16.6842 4.16666 16.2917 4.16666 15.8333V5C3.93055 5 3.7325 4.92028 3.5725 4.76083C3.41305 4.60083 3.33333 4.40278 3.33333 4.16667C3.33333 3.93056 3.41305 3.7325 3.5725 3.5725C3.7325 3.41306 3.93055 3.33333 4.16666 3.33333H7.49999C7.49999 3.09722 7.57999 2.89917 7.73999 2.73917C7.89944 2.57972 8.09722 2.5 8.33333 2.5H11.6667C11.9028 2.5 12.1008 2.57972 12.2608 2.73917C12.4203 2.89917 12.5 3.09722 12.5 3.33333H15.8333C16.0694 3.33333 16.2672 3.41306 16.4267 3.5725C16.5867 3.7325 16.6667 3.93056 16.6667 4.16667C16.6667 4.40278 16.5867 4.60083 16.4267 4.76083C16.2672 4.92028 16.0694 5 15.8333 5V15.8333C15.8333 16.2917 15.6703 16.6842 15.3442 17.0108C15.0175 17.3369 14.625 17.5 14.1667 17.5H5.83333ZM7.49999 13.3333C7.49999 13.5694 7.57999 13.7672 7.73999 13.9267C7.89944 14.0867 8.09722 14.1667 8.33333 14.1667C8.56944 14.1667 8.7675 14.0867 8.9275 13.9267C9.08694 13.7672 9.16666 13.5694 9.16666 13.3333V7.5C9.16666 7.26389 9.08694 7.06583 8.9275 6.90583C8.7675 6.74639 8.56944 6.66667 8.33333 6.66667C8.09722 6.66667 7.89944 6.74639 7.73999 6.90583C7.57999 7.06583 7.49999 7.26389 7.49999 7.5V13.3333ZM10.8333 13.3333C10.8333 13.5694 10.9133 13.7672 11.0733 13.9267C11.2328 14.0867 11.4306 14.1667 11.6667 14.1667C11.9028 14.1667 12.1008 14.0867 12.2608 13.9267C12.4203 13.7672 12.5 13.5694 12.5 13.3333V7.5C12.5 7.26389 12.4203 7.06583 12.2608 6.90583C12.1008 6.74639 11.9028 6.66667 11.6667 6.66667C11.4306 6.66667 11.2328 6.74639 11.0733 6.90583C10.9133 7.06583 10.8333 7.26389 10.8333 7.5V13.3333Z" fill="#212121"/>
</svg>
