<svg width="20" height="20" viewBox="0 0 20 20" fill="none" xmlns="http://www.w3.org/2000/svg">
<path d="M9.16663 1.66675C13.3066 1.66675 16.6666 5.02675 16.6666 9.16675C16.6666 13.3067 13.3066 16.6667 9.16663 16.6667C5.02663 16.6667 1.66663 13.3067 1.66663 9.16675C1.66663 5.02675 5.02663 1.66675 9.16663 1.66675ZM9.16663 15.0001C12.3891 15.0001 15 12.3892 15 9.16675C15 5.94341 12.3891 3.33341 9.16663 3.33341C5.94329 3.33341 3.33329 5.94341 3.33329 9.16675C3.33329 12.3892 5.94329 15.0001 9.16663 15.0001ZM16.2375 15.0592L18.595 17.4159L17.4158 18.5951L15.0591 16.2376L16.2375 15.0592Z" fill="#212121"/>
</svg>
