<svg width="207" height="188" viewBox="0 0 207 188" fill="none" xmlns="http://www.w3.org/2000/svg">
<path fill-rule="evenodd" clip-rule="evenodd" d="M0.440511 118.504C1.02786 117.917 1.98014 117.917 2.56749 118.504L12.7195 128.656C13.3068 129.244 13.3068 130.196 12.7195 130.783C12.1321 131.371 11.1799 131.371 10.5925 130.783L0.440511 120.631C-0.146837 120.044 -0.146837 119.092 0.440511 118.504Z" fill="#7CA9E2"/>
<path fill-rule="evenodd" clip-rule="evenodd" d="M191.448 162.12C192.036 161.533 192.988 161.533 193.575 162.12L201.847 170.392C202.435 170.98 202.435 171.932 201.847 172.519C201.26 173.107 200.308 173.107 199.72 172.519L191.448 164.247C190.861 163.66 190.861 162.708 191.448 162.12Z" fill="#7CA9E2"/>
<path fill-rule="evenodd" clip-rule="evenodd" d="M0.440511 130.784C1.02786 131.371 1.98014 131.371 2.56749 130.784L12.7195 120.632C13.3068 120.044 13.3068 119.092 12.7195 118.505C12.1321 117.917 11.1799 117.917 10.5925 118.505L0.440511 128.657C-0.146837 129.244 -0.146837 130.196 0.440511 130.784Z" fill="#7CA9E2"/>
<path fill-rule="evenodd" clip-rule="evenodd" d="M191.448 172.519C192.036 173.107 192.988 173.107 193.575 172.519L201.847 164.247C202.435 163.66 202.435 162.708 201.847 162.12C201.26 161.533 200.308 161.533 199.72 162.12L191.448 170.392C190.861 170.98 190.861 171.932 191.448 172.519Z" fill="#7CA9E2"/>
<path opacity="0.36" fill-rule="evenodd" clip-rule="evenodd" d="M85.2872 0.440511C84.6999 -0.146837 83.7476 -0.146837 83.1602 0.440511C82.5729 1.02786 82.5729 1.98014 83.1602 2.56749L85.8568 5.26402L83.1603 7.96052C82.5729 8.54787 82.5729 9.50015 83.1603 10.0875C83.7476 10.6748 84.6999 10.6748 85.2872 10.0875L87.9837 7.391L90.6802 10.0875C91.2676 10.6748 92.2199 10.6748 92.8072 10.0875C93.3946 9.50014 93.3946 8.54786 92.8072 7.96051L90.1107 5.26402L92.8072 2.5675C93.3946 1.98015 93.3946 1.02787 92.8072 0.440519C92.2199 -0.146829 91.2676 -0.146829 90.6803 0.440519L87.9837 3.13704L85.2872 0.440511Z" fill="#7CA9E2"/>
<path opacity="0.36" fill-rule="evenodd" clip-rule="evenodd" d="M16.5443 69.936C17.7902 69.936 18.8003 68.926 18.8003 67.68C18.8003 66.4341 17.7902 65.424 16.5443 65.424C15.2983 65.424 14.2883 66.4341 14.2883 67.68C14.2883 68.926 15.2983 69.936 16.5443 69.936ZM16.5443 72.944C19.4515 72.944 21.8083 70.5872 21.8083 67.68C21.8083 64.7728 19.4515 62.416 16.5443 62.416C13.637 62.416 11.2803 64.7728 11.2803 67.68C11.2803 70.5872 13.637 72.944 16.5443 72.944Z" fill="#6A9BD9"/>
<path fill-rule="evenodd" clip-rule="evenodd" d="M131.6 184.992C133.261 184.992 134.608 183.645 134.608 181.984C134.608 180.323 133.261 178.976 131.6 178.976C129.939 178.976 128.592 180.323 128.592 181.984C128.592 183.645 129.939 184.992 131.6 184.992ZM131.6 188C134.923 188 137.616 185.306 137.616 181.984C137.616 178.661 134.923 175.968 131.6 175.968C128.277 175.968 125.584 178.661 125.584 181.984C125.584 185.306 128.277 188 131.6 188Z" fill="#6A9BD9"/>
<path opacity="0.36" fill-rule="evenodd" clip-rule="evenodd" d="M189.023 54.063C188.486 54.2799 188.385 54.9964 188.841 55.3528L198.592 62.971C199.048 63.3274 199.719 63.0564 199.8 62.4831L201.522 50.2298C201.602 49.6565 201.032 49.211 200.496 49.4279L189.023 54.063ZM197.999 53.6806L193.772 55.3883L197.365 58.195L197.999 53.6806Z" fill="#7CA9E2"/>
<path fill-rule="evenodd" clip-rule="evenodd" d="M11.9124 158.901C11.3756 159.118 11.2749 159.835 11.7311 160.191L20.1928 166.802C20.649 167.159 21.3199 166.888 21.4005 166.315L22.8951 155.681C22.9757 155.108 22.4055 154.662 21.8687 154.879L11.9124 158.901ZM19.3725 159.132L16.6621 160.227L18.9656 162.026L19.3725 159.132Z" fill="#7CA9E2"/>
<ellipse cx="91" cy="96.5" rx="36" ry="36.5" fill="#D4E1F1"/>
<circle cx="94" cy="94" r="51" stroke="#6A9BD9" stroke-width="4"/>
<path d="M96.1774 66.9207C102.102 67.9083 107.599 70.6362 111.969 74.7572" stroke="#6A9BD9" stroke-width="4"/>
<path d="M113.879 76.7292C115.463 78.5214 116.83 80.4952 117.95 82.6092" stroke="#6A9BD9" stroke-width="4"/>
<circle cx="94" cy="94" r="41" stroke="#6A9BD9" stroke-width="4"/>
<path d="M127.17 135.209L137.534 124.365L157.415 143.365C160.41 146.227 160.517 150.974 157.655 153.969C154.794 156.963 150.046 157.071 147.052 154.209L127.17 135.209Z" stroke="#6A9BD9" stroke-width="4"/>
</svg>
